<?xml version="1.0" standalone="no"?><!DOCTYPE svg PUBLIC "-//W3C//DTD SVG 1.1//EN" "http://www.w3.org/Graphics/SVG/1.1/DTD/svg11.dtd"><svg t="1657782527530" class="icon" viewBox="0 0 1024 1024" version="1.1" xmlns="http://www.w3.org/2000/svg" p-id="11799" xmlns:xlink="http://www.w3.org/1999/xlink" width="20" height="20"><defs><style type="text/css"></style></defs><path d="M512 170.666667a384 384 0 1 1 0 768 384 384 0 0 1 0-768z m-10.666667 170.666666a32 32 0 0 0-32 32v213.333334a42.666667 42.666667 0 0 0 42.666667 42.666666h128a32 32 0 1 0 0-64h-106.666667v-192a32 32 0 0 0-32-32z m288.768-218.837333l3.584 3.114667 148.266667 148.224a32 32 0 0 1-41.685333 48.384l-3.584-3.114667-148.224-148.224a32 32 0 0 1 41.642666-48.384z m-512.981333 3.114667a32 32 0 0 1 3.114667 41.642666l-3.114667 3.626667-148.224 148.224a32 32 0 0 1-48.341333-41.685333l3.072-3.584 148.266666-148.224a32 32 0 0 1 45.226667 0z" p-id="11800" fill="#ffffff"></path></svg>