<?xml version="1.0" standalone="no"?><!DOCTYPE svg PUBLIC "-//W3C//DTD SVG 1.1//EN" "http://www.w3.org/Graphics/SVG/1.1/DTD/svg11.dtd"><svg t="1662434694378" class="icon" viewBox="0 0 1024 1024" version="1.1" xmlns="http://www.w3.org/2000/svg" p-id="5625" width="20" height="20" xmlns:xlink="http://www.w3.org/1999/xlink"><path d="M106.666667 213.333333a42.666667 42.666667 0 0 1 42.666666-42.666666h725.333334a42.666667 42.666667 0 0 1 42.666666 42.666666v640a42.666667 42.666667 0 0 1-42.666666 42.666667H149.333333a42.666667 42.666667 0 0 1-42.666666-42.666667V213.333333z m85.333333 42.666667v554.666667h640V256H192z" fill="#ffffff" p-id="5626"></path><path d="M298.666667 448h298.666666v85.333333H298.666667v-85.333333zM298.666667 618.666667h426.666666v85.333333H298.666667v-85.333333zM384 85.333333v256h-85.333333V85.333333h85.333333zM725.333333 85.333333v256h-85.333333V85.333333h85.333333z" fill="#ffffff" p-id="5627"></path></svg>