<?xml version="1.0" standalone="no"?><!DOCTYPE svg PUBLIC "-//W3C//DTD SVG 1.1//EN" "http://www.w3.org/Graphics/SVG/1.1/DTD/svg11.dtd"><svg t="1658907653140" class="icon" viewBox="0 0 1024 1024" version="1.1" xmlns="http://www.w3.org/2000/svg" p-id="27460" xmlns:xlink="http://www.w3.org/1999/xlink" width="20" height="20"><defs><style type="text/css"></style></defs><path d="M859.17 73.02h-7.07c-20.43 0-37.47 12.59-47.79 30.21-10.39 17.74-29.65 29.65-51.69 29.65-18.63 0-35.28-8.51-46.26-21.86-18.52-22.52-44.12-38-73.28-38h-0.27c-29.16 0-54.76 15.48-73.28 38-10.98 13.35-27.62 21.86-46.26 21.86-18.63 0-35.28-8.51-46.25-21.86-18.52-22.52-44.12-38-73.28-38s-54.76 15.48-73.28 38c-10.98 13.35-27.62 21.86-46.25 21.86-22.04 0-41.3-11.91-51.69-29.65-10.32-17.62-27.36-30.21-47.79-30.21h-7.9c-29.22 0-52.9 23.69-52.9 52.9v772.16c0 29.22 23.69 52.9 52.9 52.9h7.9c20.43 0 37.47-12.59 47.79-30.21 10.39-17.74 29.65-29.65 51.69-29.65 18.63 0 35.28 8.51 46.25 21.86 18.52 22.52 44.12 38 73.28 38s54.76-15.48 73.28-38c10.98-13.35 27.62-21.86 46.25-21.86s35.28 8.51 46.26 21.86c18.52 22.52 44.12 38 73.28 38h0.27c29.16 0 54.76-15.48 73.28-38 10.98-13.35 27.62-21.86 46.26-21.86 22.04 0 41.3 11.91 51.69 29.65 10.32 17.63 27.36 30.21 47.79 30.21h7.07c29.22 0 52.9-23.69 52.9-52.9V125.92c0.01-29.22-23.68-52.9-52.9-52.9zM658.03 600.15c0 12.03-9.76 21.79-21.79 21.79H240.96c-12.03 0-21.79-9.76-21.79-21.79v-29.8c0-12.04 9.76-21.79 21.79-21.79h395.28c12.03 0 21.79 9.76 21.79 21.79v29.8z m146.32-182.98c0 12.03-9.76 21.79-21.79 21.79H241.1c-12.03 0-21.79-9.76-21.79-21.79v-29.56c0-12.04 9.76-21.79 21.79-21.79h541.46c12.03 0 21.79 9.75 21.79 21.79v29.56z" fill="#ffffff" p-id="27461"></path></svg>