<?xml version="1.0" standalone="no"?><!DOCTYPE svg PUBLIC "-//W3C//DTD SVG 1.1//EN" "http://www.w3.org/Graphics/SVG/1.1/DTD/svg11.dtd"><svg t="1657783192644" class="icon" viewBox="0 0 1024 1024" version="1.1" xmlns="http://www.w3.org/2000/svg" p-id="25119" xmlns:xlink="http://www.w3.org/1999/xlink" width="20" height="20"><defs><style type="text/css"></style></defs><path d="M888.832 819.370667h-66.901333v-67.754667h66.901333c18.432 0 33.450667-15.018667 33.450667-33.450667V135.338667c0-18.432-15.018667-33.450667-33.450667-33.450667H305.834667c-18.432 0-33.450667 15.018667-33.450667 33.450667v65.706666h-67.754667V135.338667c0-55.808 45.397333-101.205333 101.034667-101.205334h582.997333C944.469333 34.133333 989.866667 79.530667 989.866667 135.338667v582.997333c0 55.637333-45.397333 101.034667-101.034667 101.034667z" fill="#ffffff" p-id="25120"></path><path d="M774.826667 177.493333H105.813333A71.68 71.68 0 0 0 34.133333 249.173333v669.013334A71.68 71.68 0 0 0 105.813333 989.866667h669.013334a71.68 71.68 0 0 0 71.68-71.68V249.173333a71.68 71.68 0 0 0-71.68-71.68zM597.333333 650.752c18.773333 0 33.792 15.189333 33.792 33.792S615.936 718.506667 597.333333 718.506667h-123.050666v78.336c0 18.773333-15.189333 33.792-33.792 33.792s-33.792-15.189333-33.792-33.792V718.506667H283.306667c-18.773333 0-33.792-15.189333-33.792-33.792s15.189333-33.792 33.792-33.792h123.050666v-66.901334H283.306667c-18.773333 0-33.792-15.189333-33.792-33.792s15.189333-33.792 33.792-33.792h120.149333l-121.685333-121.685333c-13.141333-13.141333-13.141333-34.645333 0-47.786667s34.645333-13.141333 47.786666 0l110.592 110.592 110.592-110.592c13.141333-13.141333 34.645333-13.141333 47.786667 0s13.141333 34.645333 0 47.786667l-121.685333 121.685333H597.333333c18.773333 0 33.792 15.189333 33.792 33.792s-15.189333 33.792-33.792 33.792h-123.050666v66.901334H597.333333z" fill="#ffffff" p-id="25121"></path></svg>