<?xml version="1.0" standalone="no"?><!DOCTYPE svg PUBLIC "-//W3C//DTD SVG 1.1//EN" "http://www.w3.org/Graphics/SVG/1.1/DTD/svg11.dtd"><svg t="1658907916628" class="icon" viewBox="0 0 1024 1024" version="1.1" xmlns="http://www.w3.org/2000/svg" p-id="31572" xmlns:xlink="http://www.w3.org/1999/xlink" width="20" height="20"><defs><style type="text/css"></style></defs><path d="M318.72 283.2c-24.64 0-44.8-20.16-44.8-44.8V109.12c0-24.64 20.16-44.8 44.8-44.8s44.8 20.16 44.8 44.8v129.28c0 24.64-19.84 44.8-44.8 44.8z m396.8 0c24.64 0 44.8-20.16 44.8-44.8V109.12c0-24.64-20.16-44.8-44.8-44.8s-44.8 20.16-44.8 44.8v129.28c0.32 24.64 20.16 44.8 44.8 44.8z" fill="#ffffff" p-id="31573"></path><path d="M81.28 355.52V261.76c0-73.28 59.52-132.8 132.8-132.8h40.96v108.8c0 35.2 28.8 64 64 64s64-28.8 64-64v-108.8h268.8v108.8c0 35.2 28.8 64 64 64s64-28.8 64-64v-108.8h30.08c73.28 0 132.8 59.52 132.8 132.8v93.76H81.28zM81.28 444.8v381.12c0 73.28 59.52 132.8 132.8 132.8h595.84c73.28 0 132.8-59.52 132.8-132.8V444.8H81.28z m243.84 326.72H280.96c-24.64 0-44.8-20.16-44.8-44.8s20.16-44.8 44.8-44.8h44.16c24.64 0 44.8 20.16 44.8 44.8 0 24.64-20.16 44.8-44.8 44.8z m0-154.24H280.96c-24.64 0-44.8-20.16-44.8-44.8s20.16-44.8 44.8-44.8h44.16c24.64 0 44.8 20.16 44.8 44.8s-20.16 44.8-44.8 44.8z m208.96 154.24H489.6c-24.64 0-44.8-20.16-44.8-44.8s20.16-44.8 44.8-44.8h44.16c24.64 0 44.8 20.16 44.8 44.8 0 24.64-19.84 44.8-44.48 44.8z m0-154.24H489.6c-24.64 0-44.8-20.16-44.8-44.8s20.16-44.8 44.8-44.8h44.16c24.64 0 44.8 20.16 44.8 44.8s-19.84 44.8-44.48 44.8z m203.52 0h-44.16c-24.64 0-44.8-20.16-44.8-44.8s20.16-44.8 44.8-44.8h44.16c24.64 0 44.8 20.16 44.8 44.8s-19.84 44.8-44.8 44.8z" fill="#ffffff" p-id="31574"></path></svg>