<?xml version="1.0" standalone="no"?><!DOCTYPE svg PUBLIC "-//W3C//DTD SVG 1.1//EN" "http://www.w3.org/Graphics/SVG/1.1/DTD/svg11.dtd"><svg t="1662434870544" class="icon" viewBox="0 0 1024 1024" version="1.1" xmlns="http://www.w3.org/2000/svg" p-id="7624" width="20" height="20" xmlns:xlink="http://www.w3.org/1999/xlink"><path d="M941.7 459.9c-3-0.1-5.9-0.3-8.8-0.8H615.1c-27.7 0-50.2-22.5-50.2-50.2V91c-0.5-2.7-0.8-5.5-0.8-8.4-0.2-27.6 22.7-50.2 50.3-50.6h2.6c192.5 1.3 373.8 182.7 375 375v2.6c-0.4 27.5-22.8 50.3-50.3 50.3zM665.4 358.6h220.1c-24.2-102.2-117.9-195.9-220.1-220.1v220.1z" fill="#ffffff" p-id="7625"></path><path d="M464.4 992C226 992 32 798 32 559.6c0-238.4 194-432.4 432.4-432.4 27.7 0 50.2 22.5 50.2 50.2v331.9h331.9c27.7 0 50.2 22.5 50.2 50.2C896.8 798 702.8 992 464.4 992z m-50.3-760.5c-159.2 24.3-281.6 162.2-281.6 328.1 0 183 148.9 331.9 331.9 331.9 165.9 0 303.8-122.4 328.1-281.6H464.4c-27.7 0-50.2-22.5-50.2-50.2V231.5z" fill="#ffffff" p-id="7626"></path></svg>