<?xml version="1.0" standalone="no"?><!DOCTYPE svg PUBLIC "-//W3C//DTD SVG 1.1//EN" "http://www.w3.org/Graphics/SVG/1.1/DTD/svg11.dtd"><svg t="1657782931365" class="icon" viewBox="0 0 1024 1024" version="1.1" xmlns="http://www.w3.org/2000/svg" p-id="17792" xmlns:xlink="http://www.w3.org/1999/xlink" width="20" height="20"><defs><style type="text/css"></style></defs><path d="M981.984758 806.110468a53.866386 53.866386 0 0 0 26.933193 19.391899l6.463966 4.309311a24.239874 24.239874 0 0 1 8.079958 12.389269 45.517096 45.517096 0 0 1 0 15.35192 88.340873 88.340873 0 0 1-5.386639 18.583903 76.220936 76.220936 0 0 1-9.157285 16.69858 32.319832 32.319832 0 0 1-11.850605 10.773277 26.933193 26.933193 0 0 1-11.311941 3.231983 33.666491 33.666491 0 0 1-10.773277-2.154655 97.228827 97.228827 0 0 0-13.466597-2.962651 66.255655 66.255655 0 0 0-16.429248 0 72.988953 72.988953 0 0 0-16.698579 3.501315 28.818517 28.818517 0 0 0-14.274593 9.157285 51.711731 51.711731 0 0 0-15.082588 30.434508 59.791689 59.791689 0 0 0 4.847975 32.589164 19.930563 19.930563 0 0 1-1.615992 21.277223 37.167806 37.167806 0 0 1-10.234613 8.887953 154.596528 154.596528 0 0 1-15.35192 8.34929 99.11415 99.11415 0 0 1-17.506576 5.925303 75.682272 75.682272 0 0 1-16.159915 2.154655 14.274592 14.274592 0 0 1-9.157286-3.770647 23.970542 23.970542 0 0 1-5.925303-8.079958A65.447659 65.447659 0 0 0 807.996331 983.061547a49.018411 49.018411 0 0 0-34.205156-13.466597 50.634403 50.634403 0 0 0-32.858495 12.119937 65.986323 65.986323 0 0 0-20.738559 26.933193 17.775907 17.775907 0 0 1-8.079958 9.426618 25.04787 25.04787 0 0 1-11.850605 5.386638 59.522357 59.522357 0 0 1-16.967911-2.693319 130.895318 130.895318 0 0 1-18.853235-6.733298 72.180957 72.180957 0 0 1-18.04524-9.426618 47.941084 47.941084 0 0 1-11.311941-10.503945 16.429248 16.429248 0 0 1-2.962651-8.887954 32.858496 32.858496 0 0 1 4.039979-14.274592 53.866386 53.866386 0 0 0 4.578643-26.933193 48.479748 48.479748 0 0 0-13.735929-29.087849 34.743819 34.743819 0 0 0-18.314571-10.503945 76.7596 76.7596 0 0 0-20.469227-1.885324 103.154129 103.154129 0 0 0-23.162546 4.309311 20.738559 20.738559 0 0 1-15.082588 0 22.35455 22.35455 0 0 1-11.042609-9.965281 112.311415 112.311415 0 0 1-9.157286-16.967912 93.996844 93.996844 0 0 1-6.194634-19.391899 45.517096 45.517096 0 0 1 0-16.429248 16.429248 16.429248 0 0 1 10.773277-14.813256 75.412941 75.412941 0 0 0 29.087849-21.277222 48.479748 48.479748 0 0 0 12.927932-32.858496 46.325092 46.325092 0 0 0-12.927932-32.589163 80.799579 80.799579 0 0 0-29.087849-20.199895 15.082588 15.082588 0 0 1-8.079958-7.810626 26.933193 26.933193 0 0 1-3.231983-12.658601 61.946344 61.946344 0 0 1 2.154656-15.35192 101.80747 101.80747 0 0 1 5.65597-16.429248 79.183588 79.183588 0 0 1 8.079958-14.813256 31.511836 31.511836 0 0 1 9.965281-9.965281 14.00526 14.00526 0 0 1 8.34929-2.154656l8.887954 2.154656a64.370331 64.370331 0 0 0 33.397159 4.039979 53.866386 53.866386 0 0 0 30.973172-15.082589 38.514466 38.514466 0 0 0 9.426618-15.890583 90.495529 90.495529 0 0 0 3.770647-18.314572 95.882167 95.882167 0 0 0 0-16.698579c0-4.847975 0-8.34929-1.34666-10.503946a49.826407 49.826407 0 0 1-1.885323-7.541294 12.119937 12.119937 0 0 1 0-7.541294 31.781168 31.781168 0 0 1 11.581273-12.927932 90.764861 90.764861 0 0 1 18.045239-9.426618 107.732772 107.732772 0 0 1 18.853235-5.655971 68.679642 68.679642 0 0 1 14.543925-1.885323 14.274592 14.274592 0 0 1 11.042609 4.578643 26.933193 26.933193 0 0 1 5.65597 9.426617 64.908995 64.908995 0 0 0 19.122567 25.317202 47.133088 47.133088 0 0 0 31.511836 11.042609 56.021042 56.021042 0 0 0 53.866386-36.898475 37.167806 37.167806 0 0 1 6.733299-8.618621 12.658601 12.658601 0 0 1 9.426617-4.578643 74.874277 74.874277 0 0 1 16.429248 2.154655 103.962125 103.962125 0 0 1 17.506575 5.925303 70.564966 70.564966 0 0 1 15.890584 9.426617 56.021042 56.021042 0 0 1 11.581273 12.927933 12.658601 12.658601 0 0 1 1.615992 9.426618 35.013151 35.013151 0 0 1-2.154656 7.271962 56.559705 56.559705 0 0 0-4.30931 32.589163 53.866386 53.866386 0 0 0 15.621252 29.895845 48.749079 48.749079 0 0 0 31.511835 14.274592 71.911625 71.911625 0 0 0 34.743819-6.194635 14.813256 14.813256 0 0 1 10.503946-2.154655 15.35192 15.35192 0 0 1 10.503945 4.847975 60.869016 60.869016 0 0 1 14.274592 22.623882A127.394003 127.394003 0 0 1 1023.461875 700.263019a19.391899 19.391899 0 0 1-2.962651 14.274593 21.007891 21.007891 0 0 1-8.34929 6.463966 62.75434 62.75434 0 0 0-28.279853 20.738559 51.711731 51.711731 0 0 0-11.850605 33.397159 53.866386 53.866386 0 0 0 9.965282 31.511836m-126.047344-114.46607a119.314045 119.314045 0 0 0-37.167806-25.04787 117.967386 117.967386 0 0 0-45.517096-9.157286 116.351394 116.351394 0 0 0-45.247765 9.157286 119.852709 119.852709 0 0 0-36.898474 25.04787 111.772751 111.772751 0 0 0-25.04787 35.013151 113.388743 113.388743 0 0 0-9.157285 44.978432 111.772751 111.772751 0 0 0 9.157285 45.247764 119.044713 119.044713 0 0 0 25.04787 37.167807 114.196739 114.196739 0 0 0 82.146239 34.474487 116.351394 116.351394 0 0 0 107.732772-71.642294 113.119411 113.119411 0 0 0 7.810626-43.901104 110.964755 110.964755 0 0 0-9.157286-44.978433 113.388743 113.388743 0 0 0-24.778537-36.898474z m-421.504471 84.031562a289.531825 289.531825 0 0 1 125.239348-238.897423c-7.541294-116.351394 116.890058-172.641767 116.890058-316.195686 0-122.276696-92.650184-221.121515-242.398738-221.121515s-242.398738 98.844819-242.398737 221.121515c0 144.361915 126.047344 200.652288 116.890057 318.08101a136.551289 136.551289 0 0 1-34.743819 76.7596H64.37087A64.639663 64.639663 0 0 0 0.000539 680.87112v129.817991h436.317727a269.331931 269.331931 0 0 1-2.154655-34.474487z m17.237244 99.383482H0.000539v97.228827h511.730668a290.339821 290.339821 0 0 1-59.253025-97.228827z" p-id="17793" fill="#ffffff"></path></svg>