<?xml version="1.0" standalone="no"?><!DOCTYPE svg PUBLIC "-//W3C//DTD SVG 1.1//EN" "http://www.w3.org/Graphics/SVG/1.1/DTD/svg11.dtd"><svg t="1662686103050" class="icon" viewBox="0 0 1024 1024" version="1.1" xmlns="http://www.w3.org/2000/svg" p-id="1469" xmlns:xlink="http://www.w3.org/1999/xlink" width="20" height="20"><path d="M619.6 473.8c0-19.3-15.7-35-35-35H425.8c-19.3 0-35 15.7-35 35s15.7 35 35 35h158.8c19.3 0 35-15.6 35-35z" p-id="1470" fill="#ffffff"></path><path d="M858 125.9H170.6L99.2 310.6v611.1h393.7c19.3 0 35-15.7 35-35s-15.7-35-35-35H169.2V353.8h685.6v128.6c0 19.3 15.7 35 35 35s35-15.7 35-35V313.9l-66.8-188z m-49.5 70l31.2 87.9H184.6l34-87.9h589.9z" p-id="1471" fill="#ffffff"></path><path d="M798.5 749.9c31.3-53.4 24.1-123.4-21.7-169.2-26.4-26.4-61.4-40.9-98.7-40.9s-72.3 14.5-98.7 40.9c-54.4 54.4-54.4 142.9 0 197.3 26.4 26.4 61.4 40.9 98.7 40.9 25.6 0 50.1-6.8 71.5-19.7l95.3 95.3c13.5 13.5 35.5 13.5 49 0s13.5-35.5 0-49l-95.4-95.6zM629 728.5c-27.1-27.1-27.1-71.2 0-98.3 13.6-13.6 31.4-20.3 49.2-20.3s35.6 6.8 49.2 20.3c27.1 27.1 27.1 71.2 0 98.3-13.6 13.6-31.4 20.3-49.2 20.3-17.8 0-35.6-6.8-49.2-20.3z" p-id="1472" fill="#ffffff"></path></svg>