<?xml version="1.0" standalone="no"?><!DOCTYPE svg PUBLIC "-//W3C//DTD SVG 1.1//EN" "http://www.w3.org/Graphics/SVG/1.1/DTD/svg11.dtd"><svg t="1662455830468" class="icon" viewBox="0 0 1024 1024" version="1.1" xmlns="http://www.w3.org/2000/svg" p-id="35665" width="20" height="20" xmlns:xlink="http://www.w3.org/1999/xlink"><path d="M182.527886 99.072578h658.943588c45.823971 0 82.943948 36.991977 82.943948 82.559948V672.00022c0 45.631971-37.119977 82.559948-82.943948 82.559948H182.527886a82.751948 82.751948 0 0 1-82.943948-82.559948V181.696526c0-45.631971 37.119977-82.559948 82.943948-82.559948z m0-99.071938A182.079886 182.079886 0 0 0 0 181.696526V672.00022a182.079886 182.079886 0 0 0 182.527886 181.695886h658.943588A182.079886 182.079886 0 0 0 1023.99936 672.00022V181.696526A182.079886 182.079886 0 0 0 841.471474 0.00064H182.527886zM895.99944 972.224032a50.751968 50.751968 0 0 1-50.623968 50.751969l-666.751584 0.959999a50.559968 50.559968 0 1 1 0-101.311937l666.751584-0.959999a50.559968 50.559968 0 0 1 50.623968 50.559968z" fill="#ffffff" p-id="35666"></path><path d="M730.687543 256.00048l85.695947 95.103941-285.439822 256.959839-58.815963-65.343959L402.559748 468.096347 277.631826 576.960279 191.99988 481.920339l221.375862-192.95988 81.471949 90.495944 45.055972 48.31997L730.687543 256.00048z" fill="#ffffff" p-id="35667"></path></svg>