<?xml version="1.0" standalone="no"?><!DOCTYPE svg PUBLIC "-//W3C//DTD SVG 1.1//EN" "http://www.w3.org/Graphics/SVG/1.1/DTD/svg11.dtd"><svg t="1657783335422" class="icon" viewBox="0 0 1024 1024" version="1.1" xmlns="http://www.w3.org/2000/svg" p-id="30785" xmlns:xlink="http://www.w3.org/1999/xlink" width="20" height="20"><defs><style type="text/css"></style></defs><path d="M256 952a64 64 0 0 1-64-64v-448a42.666667 42.666667 0 0 0-42.666667-42.666667H85.333333a31.210667 31.210667 0 0 1-16.832-57.493333l420.48-269.12a42.666667 42.666667 0 0 1 46.016 0l420.48 269.12A31.210667 31.210667 0 0 1 938.666667 397.333333h-64a42.666667 42.666667 0 0 0-42.666667 42.666667v448a64 64 0 0 1-64 64H256zM405.952 362.666667h-17.493333a27.477333 27.477333 0 0 0-23.914667 41.024l82.517333 145.877333h-46.72a23.36 23.36 0 0 0 0 46.72h68.48v41.813333h-68.48a23.36 23.36 0 0 0 0 46.72h68.48v63.146667a41.386667 41.386667 0 0 0 82.752 0V684.8h68.48a23.36 23.36 0 0 0 0-46.72h-68.48v-41.813333h68.48a23.36 23.36 0 1 0 0-46.72h-46.122666l85.653333-147.2A26.410667 26.410667 0 0 0 636.757333 362.666667h-16.704c-17.92 0-34.304 10.090667-42.346666 26.090666l-63.573334 126.378667h-4.266666l-61.312-125.824A47.402667 47.402667 0 0 0 405.973333 362.666667z" p-id="30786" fill="#999999"></path></svg>