<?xml version="1.0" standalone="no"?><!DOCTYPE svg PUBLIC "-//W3C//DTD SVG 1.1//EN" "http://www.w3.org/Graphics/SVG/1.1/DTD/svg11.dtd"><svg t="1662434774092" class="icon" viewBox="0 0 1024 1024" version="1.1" xmlns="http://www.w3.org/2000/svg" p-id="6308" width="20" height="20" xmlns:xlink="http://www.w3.org/1999/xlink"><path d="M924.414844 268.800304V181.696413c0-45.631943-37.119954-82.559897-82.943896-82.559897H182.527772c-45.823943 0-82.943896 36.927954-82.943896 82.559897V268.800304h824.830968z m0 102.399872H99.583876v471.103411c0 45.631943 37.119954 82.559897 82.943896 82.559897h658.943176c45.823943 0 82.943896-36.927954 82.943896-82.559897V371.200176zM182.527772 0.00064h658.943176A182.079772 182.079772 0 0 1 1023.99872 181.696413V842.239587A182.079772 182.079772 0 0 1 841.470948 1023.99936H182.527772A182.079772 182.079772 0 0 1 0 842.303587V181.760413A182.079772 182.079772 0 0 1 182.527772 0.00064z" fill="#999999" p-id="6309"></path><path d="M191.99976 703.99976V575.99992h639.9992v127.99984z" fill="#999999" p-id="6310"></path></svg>