<?xml version="1.0" standalone="no"?><!DOCTYPE svg PUBLIC "-//W3C//DTD SVG 1.1//EN" "http://www.w3.org/Graphics/SVG/1.1/DTD/svg11.dtd"><svg t="1662434605391" class="icon" viewBox="0 0 1024 1024" version="1.1" xmlns="http://www.w3.org/2000/svg" p-id="4637" width="20" height="20" xmlns:xlink="http://www.w3.org/1999/xlink"><path d="M873.3184 555.4688l-2.4576-2.4576a115.5072 115.5072 0 0 0-81.8176-34.048c-28.7744 0-57.4464 10.8544-79.2064 32.6656l-17.3568 17.3568 162.9184 162.9184 19.3024-19.3024c43.008-43.0592 42.3936-113.3568-1.3824-157.1328zM500.992 760.4224l22.016 143.104 126.464 17.7664a29.184 29.184 0 0 0 24.6784-8.1408L819.2 768.0512l-162.9184-162.9184-155.2896 155.2896z" p-id="4638" fill="#999999"></path><path d="M446.464 742.5536l18.3296-18.3296 155.2896-155.2896 36.1984-36.1984 17.3568-17.3568c30.72-30.72 71.7312-47.616 115.4048-47.616 12.0832 0 34.304 0.5632 55.3984 10.8032v-303.104C844.4928 135.168 812.4416 102.4 773.0176 102.4H189.0816c-39.4752 0-71.6288 32.8704-71.6288 73.3184v646.9632c0 40.448 32.1536 73.3184 71.6288 73.3184h227.328l53.4528-0.3072-12.2368-81.1008-11.1616-72.0384z m-139.776-422.912h360.5504a24.576 24.576 0 0 1 0 49.0496H306.688a24.4736 24.4736 0 1 1 0-49.0496z m0 163.7376h289.024a24.576 24.576 0 0 1 0 49.0496H306.688a24.576 24.576 0 0 1 0-49.0496z m0 209.5616a24.576 24.576 0 0 1 0-49.0496h150.6304a24.576 24.576 0 0 1 0 49.0496H306.688z" p-id="4639" fill="#999999"></path></svg>