<?xml version="1.0" standalone="no"?><!DOCTYPE svg PUBLIC "-//W3C//DTD SVG 1.1//EN" "http://www.w3.org/Graphics/SVG/1.1/DTD/svg11.dtd"><svg t="1658907866689" class="icon" viewBox="0 0 1075 1024" version="1.1" xmlns="http://www.w3.org/2000/svg" p-id="31365" xmlns:xlink="http://www.w3.org/1999/xlink" width="20.99609375" height="20"><defs><style type="text/css"></style></defs><path d="M234.03276166 938.54476233v-78.019048c0.926476-66.462476 10.459429-106.861714 86.064762-127.780571l33.28-8.484572c96.060952-26.624 183.491048-82.090667 137.679238-166.741333-96.768-178.785524-74.800762-306.297905 1.974857-376.636953a198.436571 198.436571 0 0 1 132.85181-46.006857c153.6 0 280.380952 147.260952 134.826667 422.64381-46.177524 87.356952 46.32381 143.676952 148.23619 169.520762l10.898286 2.633143c86.79619 20.065524 97.060571 61.391238 97.913905 131.657142v22.966858h-0.219429 0.219429v54.174476z m783.750095-54.174477s0.146286 0 0 0.121905 0 0.121905 0 0.121905V884.41904733zM123.41638066 541.20838133A276.041143 276.041143 0 0 1 485.59542866 126.26895233a223.50019 223.50019 0 0 0-102.619429 168.033524c-10.435048 83.236571 14.628571 184.100571 72.143238 291.644952a276.431238 276.431238 0 0 1-331.702857-44.714666z m168.033524-331.312762v144.213333L206.82361866 438.73523833l28.379429 25.136762 97.03619-98.133334V209.06666633z" fill="#999999" p-id="31366"></path></svg>