<?xml version="1.0" standalone="no"?><!DOCTYPE svg PUBLIC "-//W3C//DTD SVG 1.1//EN" "http://www.w3.org/Graphics/SVG/1.1/DTD/svg11.dtd"><svg t="1658483706651" class="icon" viewBox="0 0 1024 1024" version="1.1" xmlns="http://www.w3.org/2000/svg" p-id="15462" xmlns:xlink="http://www.w3.org/1999/xlink" width="20" height="20"><defs><style type="text/css"></style></defs><path d="M0 0h1024v1024H0z" fill="#999999" opacity=".01" p-id="15463"></path><path d="M960 365.152v511.744c0 12.8-2.608 24.048-7.824 33.648-5.2 9.6-10.992 17.664-17.344 24.064-9.28 9.328-18.688 15.856-28.224 19.696a78.608 78.608 0 0 1-29.12 5.696H140.48c-22.56-0.576-40.88-8.448-54.736-23.6-13.92-15.168-21.168-32.96-21.744-53.36V365.152L146.576 108.864c0-1.728 6.672-9.216 19.968-22.336 13.344-13.12 34.192-20.528 62.544-22.32h565.76c2.928-1.152 15.2 2.496 36.928 10.944 21.76 8.448 36.944 28.144 45.648 59.04L960 365.152z m-107.744-63.84L800.944 147.36h-584l-45.2 153.92h680.512z m-169.92 373.808c11.312-8.56 16.96-20.16 16.96-34.848 0-14.672-5.648-26.304-16.96-34.864-11.312-8.56-26.832-13.024-46.48-13.456h-253.76c-19.712 0.432-35.216 4.96-46.464 13.456-11.248 8.512-16.976 20.16-16.976 34.864 0 14.656 5.664 26.288 16.96 34.848 11.328 8.56 26.768 12.832 46.48 12.832h253.76c19.648-0.048 35.168-4.272 46.48-12.832z" fill="#999999" p-id="15464"></path></svg>