<?xml version="1.0" standalone="no"?><!DOCTYPE svg PUBLIC "-//W3C//DTD SVG 1.1//EN" "http://www.w3.org/Graphics/SVG/1.1/DTD/svg11.dtd"><svg t="1657782970379" class="icon" viewBox="0 0 1024 1024" version="1.1" xmlns="http://www.w3.org/2000/svg" p-id="18794" xmlns:xlink="http://www.w3.org/1999/xlink" width="20" height="20"><defs><style type="text/css"></style></defs><path d="M710.72 160c49.6 0 95.552 25.472 121.92 67.584l60.32 96.448c6.816-6.592 13.184-10.016 18.656-10.016h65.504c18.656 0 46.88 21.632 46.88 54.848-0.448 18.88-15.456 30.24-55.52 29.76-7.04 0-15.904-0.416-26.368-0.64l44.128 75.296c12.736 21.6 19.552 46.4 19.776 71.68l2.048 272.544v22.496c0 29.824-24.096 53.92-53.92 53.92H906.88a53.888 53.888 0 0 1-53.92-53.92v-22.496H170.4v22.496c0 29.824-24.128 53.92-53.92 53.92H69.152A53.888 53.888 0 0 1 15.232 840v-22.496l-0.672-272.8c0-25.024 6.4-49.6 18.88-71.424l42.784-75.072c-7.04 0.224-14.112 0.448-21.152 0.448C14.784 399.328 0 387.744 0 369.088 0 336.096 28.448 314.24 46.88 314.24h65.504c4.8 0 10.464 2.496 16.832 7.744l61.888-96A143.36 143.36 0 0 1 311.904 160H710.72zM154.944 526.976c-34.368 0-62.112 27.296-62.112 61.184 0 33.92 27.744 61.216 62.08 61.216 34.368 0 62.112-27.328 62.112-61.216 0-33.92-27.968-61.184-62.08-61.184z m713.44 0c-34.336 0-62.08 27.296-62.08 61.184 0 33.92 27.744 61.216 62.08 61.216 34.368 0 62.112-27.328 62.112-61.216 0-33.92-27.744-61.184-62.08-61.184zM329.664 231.68c-37.536 0-72.352 19.328-91.936 51.392L187.232 365.44a17.76 17.76 0 0 0 5.92 24.576 17.152 17.152 0 0 0 9.312 2.72h618.368a17.856 17.856 0 0 0 15.264-27.296l-50.752-82.144a107.648 107.648 0 0 0-91.68-51.2L329.664 231.68z" p-id="18795" fill="#999999"></path></svg>