<?xml version="1.0" standalone="no"?><!DOCTYPE svg PUBLIC "-//W3C//DTD SVG 1.1//EN" "http://www.w3.org/Graphics/SVG/1.1/DTD/svg11.dtd"><svg t="1658907414187" class="icon" viewBox="0 0 1024 1024" version="1.1" xmlns="http://www.w3.org/2000/svg" p-id="22875" xmlns:xlink="http://www.w3.org/1999/xlink" width="20" height="20"><defs><style type="text/css"></style></defs><path d="M874.656 554.656h-256V512h-213.312v42.656h-256v-213.312A85.344 85.344 0 0 1 234.656 256h128V213.344a64 64 0 0 1 64-64h170.688a64 64 0 0 1 64 64V256h128a85.344 85.344 0 0 1 85.312 85.344v213.312z m0 42.688v213.312A85.344 85.344 0 0 1 789.344 896H234.656a85.344 85.344 0 0 1-85.312-85.344v-213.312h256V640h213.312v-42.656h256zM618.656 256V213.344A21.344 21.344 0 0 0 597.344 192h-170.688a21.344 21.344 0 0 0-21.312 21.344V256h213.312z" p-id="22876" fill="#999999"></path></svg>