<?xml version="1.0" standalone="no"?><!DOCTYPE svg PUBLIC "-//W3C//DTD SVG 1.1//EN" "http://www.w3.org/Graphics/SVG/1.1/DTD/svg11.dtd"><svg t="1657785610225" class="icon" viewBox="0 0 1024 1024" version="1.1" xmlns="http://www.w3.org/2000/svg" p-id="40613" xmlns:xlink="http://www.w3.org/1999/xlink" width="20" height="20"><defs><style type="text/css"></style></defs><path d="M746.666667 512a234.666667 234.666667 0 1 1 0 469.333333 234.666667 234.666667 0 0 1 0-469.333333zM512 85.333333a234.538667 234.538667 0 0 1 208.298667 342.485334 319.872 319.872 0 0 0-230.229334 510.122666c-34.56 0.170667-74.026667 0.725333-114.389333 0.725334l-22.144-0.042667C220.672 937.813333 85.333333 929.237333 85.333333 881.024c0-128.554667 129.28-237.44 306.304-272 15.189333-7.594667 22.784-20.778667 22.784-39.509333 0-18.986667-10.581333-37.034667-31.701333-54.058667A234.069333 234.069333 0 0 1 277.333333 319.786667 234.538667 234.538667 0 0 1 512 85.333333z m234.325333 547.754667l-4.437333 2.986667-4.010667 3.584a42.666667 42.666667 0 0 0-6.656 51.882666l2.986667 4.437334 30.805333 39.808H640l-4.992 0.298666a42.666667 42.666667 0 0 0 0 84.736l4.992 0.298667h211.925333l4.736-0.256a42.666667 42.666667 0 0 0 31.829334-64.426667l-2.816-4.053333-83.925334-108.629333-3.541333-4.010667a42.666667 42.666667 0 0 0-51.882667-6.656z" p-id="40614" fill="#999999"></path></svg>