<?xml version="1.0" standalone="no"?><!DOCTYPE svg PUBLIC "-//W3C//DTD SVG 1.1//EN" "http://www.w3.org/Graphics/SVG/1.1/DTD/svg11.dtd"><svg t="1658907598467" class="icon" viewBox="0 0 1024 1024" version="1.1" xmlns="http://www.w3.org/2000/svg" p-id="24794" xmlns:xlink="http://www.w3.org/1999/xlink" width="20" height="20"><defs><style type="text/css"></style></defs><path d="M505.88 730.101H265.102c-22.932 0-40.128-17.202-40.128-40.133 0-22.927 17.196-40.13 40.128-40.13H505.88c22.931 0 40.126 17.203 40.126 40.13 0 22.93-17.194 40.133-40.126 40.133zM265.102 483.594H591.87c22.93 0 40.129 17.198 40.129 40.129 0 22.927-17.198 40.129-40.13 40.129H265.103c-22.932 0-40.128-17.203-40.128-40.129 0-22.931 17.196-40.129 40.128-40.129z m0-171.982h418.489c22.93 0 40.128 17.198 40.128 40.129 0 22.93-17.197 40.129-40.128 40.129H265.102c-22.932 0-40.128-17.199-40.128-40.129 0-22.931 17.196-40.129 40.128-40.129zM557.47 747.3c0-126.12 103.19-229.309 229.31-229.309 17.195 0 34.393 0 51.597 5.734V196.961c0-74.529-63.062-131.854-143.316-131.854H236.435c-80.257 0-143.317 57.326-143.317 131.854v630.594c0 74.523 63.06 131.85 143.317 131.85h464.352C620.53 925.01 557.47 844.754 557.47 747.299z m0 0" p-id="24795" fill="#999999"></path><path d="M889.969 695.702s0 5.733 0 0l-11.466 11.468h-11.466l-40.13-40.129v-11.468l11.47-11.463h11.462l40.13 40.128v11.464z m-34.397 34.4L746.651 839.018s-5.733 5.735-11.463 5.735l-51.597 5.733c-5.734 0-5.734 0-5.734-5.733l5.734-51.598c0-5.73 0-5.73 5.734-11.463L798.25 672.772h11.461L849.84 712.9c11.463 11.466 11.463 11.466 5.732 17.201z m-68.791-154.786c-97.457 0-177.715 80.257-177.715 177.711 0 97.46 80.258 177.717 177.715 177.717 97.454 0 177.71-80.258 177.71-177.717 0-97.454-80.255-177.711-177.71-177.711z m0 0" p-id="24796" fill="#999999"></path></svg>