<?xml version="1.0" standalone="no"?><!DOCTYPE svg PUBLIC "-//W3C//DTD SVG 1.1//EN" "http://www.w3.org/Graphics/SVG/1.1/DTD/svg11.dtd"><svg t="1657785396160" class="icon" viewBox="0 0 1024 1024" version="1.1" xmlns="http://www.w3.org/2000/svg" p-id="3329" xmlns:xlink="http://www.w3.org/1999/xlink" width="20" height="20"><defs><style type="text/css"></style></defs><path d="M969.258667 149.333333l-149.333334-149.333333-60.330666 60.330667 76.885333 76.928H554.666667v85.333333h281.002666L759.594667 298.666667l60.330666 60.330666 149.333334-149.333333a42.666667 42.666667 0 0 0 0-60.330667" fill="#999999" p-id="3330"></path><path d="M941.824 323.285333C968.021333 382.848 981.333333 446.378667 981.333333 512c0 258.816-210.56 469.333333-469.333333 469.333333-258.816 0-469.333333-210.517333-469.333333-469.333333S253.184 42.666667 512 42.666667v85.333333c-211.754667 0-384 172.245333-384 384 0 211.712 172.245333 384 384 384 211.712 0 384-172.288 384-384 0-53.76-10.88-105.642667-32.298667-154.368l78.122667-34.346667z m-516.992 41.216l87.68 87.68 87.168-87.125333L660.053333 425.386667 573.44 512H682.666667v85.333333h-128v128h-85.333334v-128H341.333333v-85.333333h110.293334L364.501333 424.832l60.330667-60.330667z" fill="#999999" p-id="3331"></path></svg>