<?xml version="1.0" standalone="no"?><!DOCTYPE svg PUBLIC "-//W3C//DTD SVG 1.1//EN" "http://www.w3.org/Graphics/SVG/1.1/DTD/svg11.dtd"><svg t="1657782879502" class="icon" viewBox="0 0 1024 1024" version="1.1" xmlns="http://www.w3.org/2000/svg" p-id="17294" xmlns:xlink="http://www.w3.org/1999/xlink" width="20" height="20"><defs><style type="text/css"></style></defs><path d="M876.7 238.3c-0.5-0.9-1.2-1.8-2-2.5-5-5-13.1-5-18.1 0L684 408.4l-68-68 172.7-172.7c0.8-0.8 1.4-1.6 2-2.5 3.6-6.1 1.6-13.9-4.5-17.5-98.4-58.1-227.2-44.8-311.8 39.8-67.1 67.1-89.4 162.3-66.6 247.8L114.2 728.7c-3 3-2.8 7.9 0.3 11l170 170c3.1 3.1 8.1 3.3 11 0.3l293.4-293.4c85.6 22.8 180.8 0.7 248-66.5 84.6-84.6 97.9-213.4 39.8-311.8z" p-id="17295" fill="#999999"></path></svg>