<?xml version="1.0" standalone="no"?><!DOCTYPE svg PUBLIC "-//W3C//DTD SVG 1.1//EN" "http://www.w3.org/Graphics/SVG/1.1/DTD/svg11.dtd"><svg t="1657782378799" class="icon" viewBox="0 0 1024 1024" version="1.1" xmlns="http://www.w3.org/2000/svg" p-id="9944" xmlns:xlink="http://www.w3.org/1999/xlink" width="20" height="20"><defs><style type="text/css"></style></defs><path d="M784.947539 564.548619a229.805247 229.805247 0 0 1 229.741474 229.741474 229.42261 229.42261 0 0 1-229.741474 229.709588 229.42261 229.42261 0 0 1-229.709588-229.709588 229.42261 229.42261 0 0 1 229.709588-229.741474zM485.247315 32.842987c138.195635 0 251.902519 114.280839 251.328563 252.444587 0 112.558973-75.251892 208.760226-177.288355 240.806053 37.338968 5.83521 75.251892 15.751879 113.132929 30.323961a261.564096 261.564096 0 0 0-151.013966 237.29855 260.926368 260.926368 0 0 0 97.955005 203.498972h-558.011908a61.38131 61.38131 0 0 1-46.043954-22.161045c-11.064579-15.146038-15.146038-32.651668-11.064579-50.125412 40.814585-208.760226 201.139378-367.331268 399.982936-402.310643-98.52896-33.831465-170.273348-128.278966-170.273348-237.904391 0-137.589793 113.132929-251.902519 251.296677-251.902519z m277.188429 602.015133a26.338162 26.338162 0 0 0-26.114957 23.021977l-0.191318 3.316185v170.560325a26.338162 26.338162 0 0 0 22.734999 26.083071l3.571276 0.223205h170.560326a26.338162 26.338162 0 0 0 3.284299-52.45312l-3.284299-0.223204H788.773906v-144.190277a26.338162 26.338162 0 0 0-26.370048-26.338162z" p-id="9945" fill="#999999"></path></svg>