<?xml version="1.0" standalone="no"?><!DOCTYPE svg PUBLIC "-//W3C//DTD SVG 1.1//EN" "http://www.w3.org/Graphics/SVG/1.1/DTD/svg11.dtd"><svg t="1657783262303" class="icon" viewBox="0 0 1024 1024" version="1.1" xmlns="http://www.w3.org/2000/svg" p-id="26994" xmlns:xlink="http://www.w3.org/1999/xlink" width="20" height="20"><defs><style type="text/css"></style></defs><path d="M951.808 196.096a31.9488 31.9488 0 0 0-13.824 2.1504l-41.984 17.2032v-111.616C896 46.4384 849.92 0 794.112 0h-40.96c-33.28 0-61.952 21.9136-73.216 53.76-25.6 69.3248-91.136 118.8864-167.936 118.8864-76.8 0-142.336-49.5616-167.424-119.4496C332.8 21.9136 304.128 0 270.848 0h-40.96C173.568 0 128 46.9504 128 103.8336v111.616l-41.984-17.2032a31.9488 31.9488 0 0 0-13.824-2.0992C31.744 200.2944 0 233.6768 0 273.8688v672.4096C0 989.0304 35.84 1024 79.872 1024h864.256c44.032 0 79.872-34.9696 79.872-77.7216V273.8688c0-40.192-31.744-73.5744-72.192-77.7216zM634.88 730.368c14.848 0 24.576 9.8816 24.576 25.0368 0 15.104-9.728 25.0368-24.576 25.0368h-98.304v97.536c0 15.1552-9.728 25.088-24.576 25.088s-24.576-9.9328-24.576-25.088v-97.536H388.608c-14.848 0-24.576-9.9328-24.576-25.088 0-15.104 9.728-24.9856 24.576-24.9856h98.304v-60.5184H386.56c-14.848 0-24.576-9.9328-24.576-25.0368s9.728-25.088 24.576-25.088h73.728L378.88 537.344a24.576 24.576 0 0 1 0-34.9184 23.552 23.552 0 0 1 34.304 0l98.304 100.1472 98.304-100.1472a23.552 23.552 0 0 1 34.304 0 24.576 24.576 0 0 1 0 34.9184l-81.408 82.944h73.728c14.848 0 24.576 9.9328 24.576 25.088 0 15.104-9.728 24.9856-24.576 24.9856h-100.864v60.0064h99.328z m199.68-489.8304l-281.6 114.7392c-26.112 10.9568-55.808 10.9568-81.92 0L189.44 240.4864v-136.704c0-22.4256 18.432-41.1648 40.448-41.1648h40.96c6.656 0 12.8 4.6592 15.872 12.4928 34.304 96 124.928 160.6656 225.28 160.6656 100.352 0 190.976-64.6656 225.28-160.6656 2.56-7.2704 8.704-12.4928 15.872-12.4928h40.96c22.016 0 40.448 18.7392 40.448 41.216v136.6528z" p-id="26995" fill="#999999"></path></svg>